<svg width="182" height="49" viewBox="0 0 182 49" fill="none" xmlns="http://www.w3.org/2000/svg">
	<g clip-path="url(#clip0_1166_764)">
		<path d="M3.78245 38.7175H0.0878906V36.2317H11.4788V38.7175H7.78176V48.7835H3.78245V38.7175Z"
			fill="#1A5532" />
		<path
			d="M26.0965 44.0187C26.0965 47.4536 23.4311 49.0001 19.5167 49.0001C15.6023 49.0001 12.9395 47.4536 12.9395 44.0187V36.2344H16.9388V43.4606C16.9388 45.1153 17.4758 46.5168 19.5167 46.5168C21.5576 46.5168 22.0972 45.1153 22.0972 43.4606V36.2344H26.0965V44.0187Z"
			fill="#1A5532" />
		<path
			d="M28.5703 36.2341H35.7071C38.3725 36.2341 40.5433 37.2422 40.5433 39.3985C40.5433 41.0705 39.599 42.1818 37.6631 42.5654V42.5973C38.952 42.8875 39.0395 43.8415 39.7939 45.3683L41.2527 48.7835H37.0835L36.2217 46.5166C35.4074 44.3578 34.8878 43.8193 33.409 43.8193H32.5696V48.7835H28.5703V36.2317M32.5696 41.4491H33.6263C34.9153 41.4491 36.549 41.4122 36.549 39.9935C36.549 38.8232 35.1476 38.6068 33.6263 38.6068H32.5696V41.4467V41.4491Z"
			fill="#1A5532" />
		<path
			d="M42.9082 36.2344H52.9477V38.6071H46.9075V41.3584H52.6904V43.731H46.9075V48.7837H42.9082V36.2344Z"
			fill="#1A5532" />
		<path
			d="M61.162 45.6904C62.1937 46.1576 63.6351 46.519 65.2912 46.519C66.5602 46.519 67.7643 46.3027 67.7643 45.297C67.7643 42.9588 60.6699 44.4316 60.6699 39.8657C60.6699 36.8464 64.1971 36.0203 67.2072 36.0203C68.6461 36.0203 70.0674 36.1997 71.0766 36.4874L70.8193 39.074C69.7852 38.6806 68.6261 38.5011 67.487 38.5011C66.4778 38.5011 64.8016 38.57 64.8016 39.6666C64.8016 41.6975 71.896 40.3353 71.896 44.8643C71.896 48.1197 68.6261 48.9999 65.2962 48.9999C63.8999 48.9999 62.1562 48.8204 60.8248 48.459L61.1695 45.6929"
			fill="#1A5532" />
		<path
			d="M81.2179 36.0203C86.1615 36.0203 88.7419 38.4815 88.7419 42.5064C88.7419 46.5313 86.119 48.9999 81.2179 48.9999C76.3168 48.9999 73.6914 46.5018 73.6914 42.5064C73.6914 38.511 76.2719 36.0203 81.2179 36.0203ZM81.2179 46.5166C83.646 46.5166 84.6127 44.5742 84.6127 42.5039C84.6127 40.3304 83.6485 38.4987 81.2179 38.4987C78.7873 38.4987 77.8206 40.3304 77.8206 42.5039C77.8206 44.6774 78.7898 46.5166 81.2179 46.5166Z"
			fill="#1A5532" />
		<path d="M90.9785 36.2344H94.9753V46.3029H101.168V48.7837H90.9785V36.2344Z" fill="#1A5532" />
		<path
			d="M115.873 44.0187C115.873 47.4536 113.208 49.0001 109.296 49.0001C105.384 49.0001 102.719 47.4536 102.719 44.0187V36.2344H106.718V43.4606C106.718 45.1153 107.25 46.5168 109.296 46.5168C111.342 46.5168 111.874 45.1153 111.874 43.4606V36.2344H115.873V44.0187Z"
			fill="#1A5532" />
		<path d="M121.03 38.7175H117.336V36.2317H128.727V38.7175H125.03V48.7835H121.03V38.7175Z"
			fill="#1A5532" />
		<path d="M134.597 36.2344H130.598V48.7837H134.597V36.2344Z" fill="#1A5532" />
		<path
			d="M144.549 36.0203C149.495 36.0203 152.073 38.4815 152.073 42.5064C152.073 46.5313 149.45 48.9999 144.549 48.9999C139.648 48.9999 137.027 46.5018 137.027 42.5064C137.027 38.511 139.608 36.0203 144.549 36.0203ZM144.549 46.5166C146.979 46.5166 147.949 44.5742 147.949 42.5039C147.949 40.3304 146.979 38.4987 144.549 38.4987C142.118 38.4987 141.154 40.3304 141.154 42.5039C141.154 44.6774 142.121 46.5166 144.549 46.5166Z"
			fill="#1A5532" />
		<path
			d="M154.377 36.2344H159.473L164.546 44.7588H164.584L164.521 36.2344H168.178V48.7837H163.215L157.964 40.2101H157.922L158.052 48.7837H154.377V36.2344Z"
			fill="#1A5532" />
		<path
			d="M171.078 45.6904C172.112 46.1576 173.556 46.519 175.21 46.519C176.476 46.519 177.68 46.3027 177.68 45.297C177.68 42.9588 170.586 44.4316 170.586 39.8657C170.586 36.8464 174.113 36.0203 177.121 36.0203C178.557 36.0203 179.978 36.1997 180.988 36.4874L180.733 39.074C179.699 38.6806 178.542 38.5011 177.4 38.5011C176.391 38.5011 174.715 38.57 174.715 39.6666C174.715 41.6975 181.807 40.3353 181.807 44.8643C181.807 48.1197 178.542 48.9999 175.21 48.9999C173.811 48.9999 172.065 48.8204 170.736 48.459L171.078 45.6929"
			fill="#1A5532" />
		<path
			d="M0 27.8648L1.09663 27.6041C2.10332 27.3042 2.71783 26.7878 3.94436 23.8079L14.9581 0L25.2499 24.3242C25.9493 26.1805 26.4789 27.3042 28.0127 27.6484L29.1068 27.8648V28.9884H16.7042V27.8648L18.4578 27.6041C19.3321 27.4738 19.9491 27.2181 19.9491 26.6108C19.9491 26.1805 19.8192 25.7478 19.5994 25.1454L12.8872 6.76396C12.4076 8.10151 6.09015 26.1387 6.09015 26.4387C6.09015 27.0878 6.48983 27.3042 7.23424 27.432L9.59985 27.8648V28.9884H0V27.8648Z"
			fill="#1A5532" />
		<path
			d="M31.3477 28.986V28.273C31.4277 28.2238 31.565 28.1427 31.7674 28.0345C32.1371 27.8279 32.4868 27.6091 32.7991 27.378C32.924 26.0675 32.9814 23.9431 32.9814 20.9976V18.588C32.9814 17.2997 32.9514 15.4064 32.8915 12.9133C32.8615 11.5339 32.7991 10.6513 32.7016 10.2726C32.6692 10.1816 32.6317 10.1177 32.5792 10.0685C32.5018 9.98986 32.3769 9.92839 32.212 9.88905C32.0422 9.85217 31.4252 9.76612 30.3535 9.62597V8.42119L35.7517 8.51462C36.3887 8.51462 37.5853 8.48266 39.3364 8.43103C40.6078 8.39415 41.622 8.37939 42.3914 8.37939C44.145 8.37939 45.5514 8.48512 46.6081 8.69903C47.6622 8.91048 48.584 9.24487 49.3684 9.70957C50.1477 10.1767 50.8122 10.7299 51.3568 11.3667C51.8939 12.0036 52.3035 12.6895 52.5808 13.4247C53.0479 14.659 53.2802 16.0137 53.2802 17.4865C53.2802 19.3576 52.933 21.0296 52.2386 22.5072C51.5466 23.9702 50.5874 25.2045 49.3734 26.1978C48.1593 27.1862 46.8379 27.8992 45.419 28.3369C43.9976 28.7696 42.2865 28.9885 40.2806 28.9885L35.8591 28.8975L31.3452 28.9885M37.3779 27.1567C38.2872 27.3042 39.1615 27.378 39.9958 27.378C41.2998 27.378 42.4564 27.2428 43.4681 26.9674C44.215 26.7633 44.8645 26.4633 45.424 26.0749C45.9861 25.6864 46.5206 25.1061 47.0352 24.3415C47.5498 23.5793 47.9495 22.6695 48.2343 21.6123C48.519 20.555 48.6614 19.4166 48.6614 18.1922C48.6614 17.0759 48.519 15.9965 48.2343 14.9565C47.952 13.914 47.4849 13.0018 46.8379 12.2199C46.1884 11.4356 45.3715 10.8701 44.3798 10.5136C43.3906 10.162 41.8893 9.9874 39.8784 9.9874C39.124 9.9874 38.2897 10.0587 37.3804 10.2062C37.2905 11.593 37.2455 14.2041 37.2455 18.0397V21.4057C37.2455 24.312 37.2905 26.2298 37.3804 27.1567"
			fill="#1A5532" />
		<path
			d="M64.7255 29.0745C63.8762 27.0214 63.0618 25.0667 62.2824 23.2178L60.1566 18.2413C58.4904 14.3393 57.4638 12.0133 57.0791 11.2659C56.6944 10.5184 56.4021 10.0882 56.2023 9.97752C55.905 9.82508 55.283 9.73656 54.3438 9.71443V8.42114C56.7269 8.48015 58.1757 8.51212 58.6903 8.51212L64.0385 8.42114V9.71443C63.1992 9.72427 62.5947 9.77098 62.2175 9.86196C62.0002 9.91113 61.8478 9.97998 61.7628 10.0759C61.6804 10.1693 61.6379 10.2873 61.6379 10.4324C61.6379 10.7274 61.9627 11.6568 62.6197 13.223C62.9994 14.1279 63.2017 14.6147 63.2267 14.6884C63.2517 14.7622 63.2841 14.8532 63.3266 14.9589L67.1286 24.0562L70.4584 15.9498C70.5383 15.7629 70.8931 14.8335 71.5226 13.1616C71.9697 11.9863 72.2445 11.2044 72.3444 10.8012C72.3644 10.6856 72.3744 10.5701 72.3744 10.4496C72.3744 10.2849 72.3469 10.1619 72.2919 10.0783C72.237 9.99473 72.1645 9.93326 72.0746 9.89392C72.0047 9.86442 71.8248 9.83737 71.5375 9.82016C70.8906 9.76115 70.3435 9.72673 69.8964 9.71689V8.4236L73.6883 8.51457L76.9133 8.4236V9.71689C75.949 9.80295 75.387 9.90867 75.2271 10.0242C74.9573 10.2283 74.3978 11.3397 73.541 13.3583L72.4843 15.7924L70.4684 20.5181C68.7573 24.5504 67.5982 27.4025 66.9912 29.0769H64.7255"
			fill="#1A5532" />
		<path
			d="M72.9796 28.9858V27.786C73.7865 27.7245 74.2661 27.6704 74.4185 27.6261C74.5683 27.5843 74.7007 27.5204 74.8131 27.4245C74.9181 27.3311 75.0355 27.1836 75.1479 26.982C75.2628 26.7803 75.6 26.0353 76.1696 24.7396C76.4269 24.1298 76.924 22.9324 77.6609 21.14L81.5453 11.6739L82.8592 8.33496H84.99L91.6722 23.6823L92.599 25.696L93.1985 27.0508C93.2984 27.2254 93.3933 27.3532 93.4833 27.4344C93.5707 27.5081 93.6731 27.5671 93.788 27.6065C93.9004 27.6483 94.1927 27.6852 94.6623 27.7097C94.8122 27.7319 95.0345 27.754 95.3168 27.7884V28.9883L91.1676 28.8973L85.9243 28.9883V27.7884C87.1283 27.7368 87.8078 27.6704 87.9627 27.5868C88.1175 27.5057 88.195 27.3655 88.195 27.1737C88.195 26.9229 88.0801 26.5271 87.8503 25.9714L86.5638 22.7456H78.8649L78.2104 24.506C77.7133 25.8559 77.466 26.6918 77.466 27.0262C77.466 27.2623 77.5435 27.4294 77.7058 27.5253C77.9407 27.6606 78.6526 27.7491 79.8391 27.7909V28.9907L76.3944 28.8998L72.9746 28.9907M79.5793 21.0023C80.5111 21.0589 81.5653 21.0908 82.7443 21.0908C83.9234 21.0908 84.9051 21.0589 85.8044 21.0023L82.6269 13.4467L79.5793 21.0023Z"
			fill="#1A5532" />
		<path
			d="M96.0109 27.6951C97.1924 27.6361 97.8694 27.5796 98.0392 27.5304C98.1517 27.4935 98.2441 27.432 98.319 27.3411C98.394 27.255 98.4564 27.0755 98.5014 26.8051C98.5638 26.4289 98.6338 25.5364 98.7162 24.1128C98.7562 23.3038 98.7762 22.2515 98.7762 20.9607V16.267L98.6837 12.0109C98.6762 11.3028 98.6463 10.8381 98.5963 10.6242C98.5438 10.4078 98.4714 10.2505 98.3765 10.1496C98.284 10.0439 98.1342 9.9677 97.9118 9.90869C97.6945 9.84968 97.0575 9.7833 96.0084 9.71691V8.42116C97.2798 8.48263 98.2116 8.51213 98.8111 8.51213L100.984 8.46542L102.361 8.42116C104.414 11.0618 106.895 14.0959 109.815 17.5332C111.913 20.0141 113.657 21.9515 115.043 23.3555V19.9723C115.043 14.7253 114.981 11.6372 114.863 10.7102C114.821 10.3463 114.731 10.1152 114.594 10.0095C114.364 9.83247 113.584 9.73412 112.265 9.71445V8.4187C113.479 8.48017 114.589 8.50967 115.603 8.50967C116.617 8.50967 117.821 8.48017 119.345 8.4187V9.71445C118.141 9.74396 117.424 9.83247 117.196 9.97754C117.114 10.0243 117.062 10.098 117.029 10.1964C116.882 10.6881 116.794 11.8044 116.762 13.5501C116.732 15.2958 116.717 16.5841 116.717 17.4152C116.717 23.9185 116.774 27.8623 116.897 29.254L116.704 29.3843C115.873 29.2417 115.031 29.1064 114.174 28.9835C110.954 25.4479 106.395 20.1395 100.492 13.0534V20.3485C100.492 21.8606 100.52 23.4415 100.582 25.079C100.625 26.215 100.68 26.9034 100.762 27.1493C100.805 27.2649 100.869 27.3583 100.967 27.4321C101.059 27.5058 101.224 27.5574 101.467 27.5869C102.111 27.6656 102.583 27.7025 102.885 27.7025C102.945 27.7025 103.045 27.6976 103.183 27.6902V28.9368C101.292 28.9073 100.213 28.8925 99.9552 28.8925C98.9835 28.8925 97.6695 28.9245 96.0059 28.9835V27.6927"
			fill="#1A5532" />
		<path
			d="M140.397 26.2962L139.713 27.7837C138.471 28.4303 137.355 28.8754 136.371 29.1139C135.381 29.3524 134.15 29.4777 132.671 29.4777C130.565 29.4777 128.707 29.1483 127.085 28.4943C125.816 27.9656 124.737 27.2649 123.858 26.3945C122.974 25.5217 122.292 24.575 121.817 23.5596C121.093 22.0204 120.73 20.3559 120.73 18.5512C120.73 15.4679 121.8 12.9502 123.938 10.9955C126.079 9.04325 129.099 8.06714 132.998 8.06714C134.34 8.06714 135.541 8.16303 136.61 8.35727C137.679 8.55151 138.916 8.89327 140.325 9.38256L140.4 9.57188C140.232 10.0267 140.105 10.5947 140.015 11.2807C139.863 12.3724 139.763 13.3805 139.72 14.3123H138.544C138.531 13.2428 138.499 12.3847 138.451 11.7429C137.787 11.0594 137.04 10.5529 136.216 10.221C135.386 9.8866 134.33 9.71695 133.041 9.71695C130.713 9.71695 128.847 10.4472 127.45 11.9028C126.054 13.3608 125.352 15.3991 125.352 18.0102C125.352 19.5887 125.587 20.9681 126.059 22.1483C126.528 23.3285 127.158 24.2997 127.937 25.0742C128.719 25.8413 129.508 26.4043 130.298 26.7584C131.377 27.2305 132.683 27.4665 134.222 27.4665C135.231 27.4665 136.186 27.3509 137.085 27.1247C137.987 26.8985 138.966 26.5101 140.028 25.9519L140.397 26.2912"
			fill="#1A5532" />
		<path
			d="M141.829 28.9859V28.1942C142.421 27.9163 142.905 27.6336 143.277 27.3385C143.34 26.9279 143.385 26.2641 143.43 25.3445C143.51 23.6578 143.552 22.4309 143.552 21.6687V15.0523C143.552 14.799 143.52 13.8426 143.46 12.1879C143.43 11.0839 143.365 10.4053 143.255 10.1594C143.208 10.0611 143.133 9.9873 143.033 9.93567C142.77 9.82011 142.066 9.73405 140.922 9.67258V8.55878L144.384 8.51944C145.074 8.51944 145.728 8.51452 146.355 8.51452C147.719 8.51452 149.235 8.49731 150.906 8.47026L153.934 8.39404C154.291 8.39404 155.016 8.41371 156.112 8.45551C156.212 8.45551 156.37 8.48748 156.604 8.55878L156.709 8.7481L156.435 10.8626C156.425 11.0101 156.372 11.7133 156.285 12.9771H155.111C155.091 11.8412 155.048 11.1454 154.978 10.8823C154.941 10.7495 154.881 10.6536 154.801 10.5971C154.673 10.511 154.276 10.4348 153.617 10.3659C152.635 10.2602 151.681 10.2086 150.742 10.2086C149.865 10.2086 148.965 10.2381 148.044 10.302C147.889 11.4035 147.819 12.8099 147.819 14.5138V17.5258C148.488 17.5848 149.193 17.6167 149.922 17.6167C150.152 17.6167 150.971 17.5971 152.388 17.5577C152.922 17.5479 153.237 17.5159 153.329 17.4545C153.424 17.3979 153.497 17.2971 153.547 17.1496C153.664 16.7808 153.734 16.1661 153.752 15.3006H154.976L154.886 18.5166L154.976 21.7228H153.752C153.762 20.5844 153.687 19.8861 153.529 19.6206C153.407 19.4239 153.195 19.301 152.885 19.2518C152.188 19.1461 151.301 19.092 150.222 19.092C149.253 19.092 148.448 19.1215 147.819 19.178V25.3789C147.819 26.0723 147.844 26.6673 147.906 27.164C148.706 27.2254 149.652 27.2549 150.747 27.2549C151.841 27.2549 152.792 27.2205 153.692 27.1517C154.591 27.0828 155.151 26.9845 155.353 26.8542C155.425 26.8148 155.485 26.7239 155.548 26.5886C155.723 26.1166 155.915 25.224 156.105 23.9086H157.329C157.104 25.851 156.987 27.4566 156.987 28.713L156.787 28.9023C156.15 28.9613 155.248 28.9933 154.076 28.9933L151.681 28.949C149.32 28.9195 147.691 28.9048 146.8 28.9048C146.565 28.9048 144.906 28.9367 141.829 28.9957"
			fill="#1A5532" />
		<path
			d="M159.433 28.986V28.273C159.513 28.2238 159.653 28.1427 159.853 28.0345C160.222 27.8279 160.575 27.6091 160.887 27.378C161.007 26.0675 161.067 23.9431 161.067 20.9976V18.588C161.067 17.2997 161.037 15.4064 160.977 12.9133C160.944 11.5339 160.882 10.6513 160.787 10.2726C160.755 10.1816 160.717 10.1177 160.667 10.0685C160.587 9.98986 160.465 9.92839 160.3 9.88905C160.133 9.85217 159.513 9.76612 158.441 9.62597V8.42119L163.837 8.51462C164.477 8.51462 165.671 8.48266 167.424 8.43103C168.696 8.39415 169.71 8.37939 170.474 8.37939C172.23 8.37939 173.634 8.48512 174.691 8.69903C175.748 8.91048 176.669 9.24487 177.456 9.70957C178.233 10.1767 178.898 10.7299 179.44 11.3667C179.979 12.0036 180.389 12.6895 180.669 13.4247C181.136 14.659 181.366 16.0137 181.366 17.4865C181.366 19.3576 181.021 21.0296 180.324 22.5072C179.632 23.9702 178.675 25.2045 177.459 26.1978C176.242 27.1862 174.926 27.8992 173.504 28.3369C172.086 28.7696 170.374 28.9885 168.368 28.9885L163.947 28.8975L159.431 28.9885M165.463 27.1567C166.37 27.3042 167.247 27.378 168.081 27.378C169.383 27.378 170.542 27.2428 171.553 26.9674C172.298 26.7633 172.95 26.4633 173.509 26.0749C174.069 25.6864 174.606 25.1061 175.121 24.3415C175.638 23.5793 176.035 22.6695 176.317 21.6123C176.604 20.555 176.747 19.4166 176.747 18.1922C176.747 17.0759 176.604 15.9965 176.317 14.9565C176.035 13.914 175.568 13.0018 174.921 12.2199C174.271 11.4356 173.454 10.8701 172.463 10.5136C171.471 10.162 169.97 9.9874 167.961 9.9874C167.207 9.9874 166.37 10.0587 165.463 10.2062C165.371 11.593 165.328 14.2041 165.328 18.0397V21.4057C165.328 24.312 165.373 26.2298 165.463 27.1567Z"
			fill="#1A5532" />
		<path
			d="M4.38867 26.0503C4.38867 26.0503 4.89577 26.4634 5.3604 25.8438C7.54616 22.9056 12.5746 16.4121 17.3134 11.5561C24.695 3.99058 32.0891 3.10544 32.0891 3.10544C32.0891 3.10544 24.3278 2.74646 16.3441 9.70221C10.7486 14.5803 4.38867 26.0503 4.38867 26.0503Z"
			fill="#1A5532" />
		<path
			d="M179.572 28.7131C180.938 28.7131 182.002 29.7606 182.002 31.0637C182.002 32.3668 180.938 33.429 179.554 33.429C178.17 33.429 177.094 32.3963 177.094 31.0637C177.094 29.731 178.188 28.7131 179.554 28.7131H179.572ZM179.539 29.1877C178.493 29.1877 177.706 30.031 177.706 31.0661C177.706 32.1013 178.493 32.9446 179.572 32.9446C180.618 32.9569 181.39 32.1111 181.39 31.0661C181.39 30.0212 180.618 29.1877 179.554 29.1877H179.539ZM179.175 32.2807H178.62V29.945C178.84 29.9032 179.145 29.8589 179.539 29.8589C179.991 29.8589 180.196 29.9302 180.371 30.0458C180.501 30.1466 180.603 30.3334 180.603 30.5473C180.603 30.8203 180.399 31.0194 180.109 31.1079V31.135C180.341 31.2087 180.474 31.3932 180.544 31.7079C180.616 32.0668 180.663 32.2094 180.721 32.2807H180.124C180.051 32.1947 180.009 31.9931 179.934 31.7226C179.889 31.4645 179.744 31.3489 179.439 31.3489H179.177V32.2783L179.175 32.2807ZM179.192 30.9629H179.452C179.757 30.9629 180.006 30.8621 180.006 30.6186C180.006 30.4023 179.844 30.2597 179.494 30.2597C179.349 30.2597 179.25 30.2744 179.19 30.2892V30.9629H179.192Z"
			fill="#1A5532" />
	</g>
	<defs>
		<clipPath id="clip0_1166_764">
			<rect width="182" height="49" fill="white" />
		</clipPath>
	</defs>
</svg>
	