<svg width="160" height="44" viewBox="0 0 160 44" fill="none" xmlns="http://www.w3.org/2000/svg">
	<g clip-path="url(#clip0_1166_5814)">
		<path d="M3.32413 34.7832H0.0761719V32.563H10.0902V34.7832H6.84001V43.7738H3.32413V34.7832Z"
			fill="white" />
		<path
			d="M22.9416 39.5181C22.9416 42.586 20.5984 43.9673 17.1572 43.9673C13.716 43.9673 11.375 42.586 11.375 39.5181V32.5654H14.8909V39.0196C14.8909 40.4976 15.363 41.7493 17.1572 41.7493C18.9514 41.7493 19.4257 40.4976 19.4257 39.0196V32.5654H22.9416V39.5181Z"
			fill="white" />
		<path
			d="M25.1172 32.5652H31.3913C33.7345 32.5652 35.6429 33.4656 35.6429 35.3915C35.6429 36.8848 34.8128 37.8774 33.1108 38.22V38.2486C34.244 38.5077 34.3208 39.3598 34.9841 40.7235L36.2665 43.7738H32.6013L31.8437 41.7491C31.1278 39.8209 30.671 39.34 29.3709 39.34H28.6331V43.7738H25.1172V32.563M28.6331 37.223H29.562C30.6952 37.223 32.1314 37.1901 32.1314 35.9229C32.1314 34.8776 30.8994 34.6844 29.562 34.6844H28.6331V37.2208V37.223Z"
			fill="white" />
		<path
			d="M37.7207 32.5654H46.5466V34.6846H41.2366V37.142H46.3204V39.2612H41.2366V43.7741H37.7207V32.5654Z"
			fill="white" />
		<path
			d="M53.7686 41.0111C54.6755 41.4283 55.9427 41.7512 57.3986 41.7512C58.5142 41.7512 59.5727 41.5579 59.5727 40.6597C59.5727 38.5713 53.3359 39.8867 53.3359 35.8086C53.3359 33.1119 56.4368 32.374 59.083 32.374C60.3479 32.374 61.5975 32.5343 62.4847 32.7913L62.2585 35.1015C61.3493 34.7502 60.3304 34.5898 59.329 34.5898C58.4418 34.5898 56.9682 34.6513 56.9682 35.6308C56.9682 37.4447 63.205 36.2281 63.205 40.2732C63.205 43.1808 60.3304 43.967 57.403 43.967C56.1754 43.967 54.6426 43.8067 53.4721 43.4839L53.7751 41.0133"
			fill="white" />
		<path
			d="M71.3999 32.374C75.7459 32.374 78.0144 34.5723 78.0144 38.1672C78.0144 41.7621 75.7086 43.967 71.3999 43.967C67.0913 43.967 64.7832 41.7358 64.7832 38.1672C64.7832 34.5986 67.0517 32.374 71.3999 32.374ZM71.3999 41.749C73.5345 41.749 74.3843 40.0141 74.3843 38.165C74.3843 36.2237 73.5367 34.5876 71.3999 34.5876C69.2632 34.5876 68.4133 36.2237 68.4133 38.165C68.4133 40.1063 69.2653 41.749 71.3999 41.749Z"
			fill="white" />
		<path d="M79.9805 32.5654H83.4942V41.5583H88.9382V43.7741H79.9805V32.5654Z" fill="white" />
		<path
			d="M101.867 39.5181C101.867 42.586 99.524 43.9673 96.0849 43.9673C92.6459 43.9673 90.3027 42.586 90.3027 39.5181V32.5654H93.8186V39.0196C93.8186 40.4976 94.2864 41.7493 96.0849 41.7493C97.8835 41.7493 98.3513 40.4976 98.3513 39.0196V32.5654H101.867V39.5181Z"
			fill="white" />
		<path d="M106.4 34.7832H103.152V32.563H113.166V34.7832H109.916V43.7738H106.4V34.7832Z"
			fill="white" />
		<path d="M118.328 32.5654H114.812V43.7741H118.328V32.5654Z" fill="white" />
		<path
			d="M127.077 32.374C131.425 32.374 133.692 34.5723 133.692 38.1672C133.692 41.7621 131.386 43.967 127.077 43.967C122.768 43.967 120.465 41.7358 120.465 38.1672C120.465 34.5986 122.733 32.374 127.077 32.374ZM127.077 41.749C129.214 41.749 130.066 40.0141 130.066 38.165C130.066 36.2237 129.214 34.5876 127.077 34.5876C124.94 34.5876 124.093 36.2237 124.093 38.165C124.093 40.1063 124.943 41.749 127.077 41.749Z"
			fill="white" />
		<path
			d="M135.717 32.5654H140.197L144.657 40.1791H144.69L144.635 32.5654H147.85V43.7741H143.486L138.87 36.1164H138.833L138.947 43.7741H135.717V32.5654Z"
			fill="white" />
		<path
			d="M150.399 41.0111C151.309 41.4283 152.578 41.7512 154.032 41.7512C155.145 41.7512 156.204 41.5579 156.204 40.6597C156.204 38.5713 149.967 39.8867 149.967 35.8086C149.967 33.1119 153.068 32.374 155.712 32.374C156.974 32.374 158.224 32.5343 159.111 32.7913L158.887 35.1015C157.978 34.7502 156.961 34.5898 155.958 34.5898C155.07 34.5898 153.597 34.6513 153.597 35.6308C153.597 37.4447 159.831 36.2281 159.831 40.2732C159.831 43.1808 156.961 43.967 154.032 43.967C152.802 43.967 151.267 43.8067 150.099 43.4839L150.399 41.0133"
			fill="white" />
		<path
			d="M0 25.09L0.964067 24.8572C1.84908 24.5893 2.38931 24.1281 3.46757 21.4665L13.15 0.202148L22.1977 21.9277C22.8126 23.5857 23.2782 24.5893 24.6265 24.8968L25.5884 25.09V26.0936H14.685V25.09L16.2266 24.8572C16.9953 24.7408 17.5377 24.5125 17.5377 23.97C17.5377 23.5857 17.4235 23.1992 17.2302 22.6612L11.3294 6.24349C10.9078 7.43814 5.35398 23.5484 5.35398 23.8163C5.35398 24.3961 5.70534 24.5893 6.35977 24.7035L8.43943 25.09V26.0936H0V25.09Z"
			fill="white" />
		<path
			d="M27.5576 26.0912V25.4543C27.6279 25.4104 27.7487 25.3379 27.9266 25.2413C28.2516 25.0568 28.559 24.8614 28.8335 24.6549C28.9433 23.4844 28.9938 21.587 28.9938 18.9562V16.804C28.9938 15.6533 28.9675 13.9624 28.9148 11.7356C28.8884 10.5036 28.8335 9.71519 28.7479 9.37699C28.7193 9.29574 28.6864 9.23864 28.6403 9.19472C28.5722 9.12445 28.4624 9.06955 28.3175 9.03441C28.1681 9.00147 27.6257 8.92461 26.6836 8.79943V7.72337L31.4293 7.80682C31.9893 7.80682 33.0412 7.77827 34.5806 7.73215C35.6984 7.69921 36.59 7.68604 37.2664 7.68604C38.808 7.68604 40.0444 7.78047 40.9733 7.97152C41.9 8.16038 42.7104 8.45905 43.3999 8.8741C44.0851 9.29135 44.6693 9.78546 45.148 10.3542C45.6202 10.923 45.9803 11.5357 46.2241 12.1923C46.6347 13.2948 46.839 14.5048 46.839 15.8202C46.839 17.4914 46.5337 18.9847 45.9232 20.3046C45.3149 21.6112 44.4716 22.7136 43.4043 23.6008C42.3371 24.4836 41.1753 25.1205 39.928 25.5114C38.6784 25.8979 37.1741 26.0933 35.4107 26.0933L31.5237 26.0121L27.5554 26.0933M32.8589 24.4573C33.6583 24.5891 34.4269 24.6549 35.1604 24.6549C36.3067 24.6549 37.3235 24.5341 38.2129 24.2882C38.8695 24.1059 39.4405 23.838 39.9324 23.491C40.4265 23.144 40.8964 22.6258 41.3488 21.9428C41.8012 21.262 42.1526 20.4495 42.4029 19.5052C42.6533 18.5609 42.7785 17.5441 42.7785 16.4505C42.7785 15.4535 42.6533 14.4894 42.4029 13.5605C42.1548 12.6293 41.7441 11.8146 41.1753 11.1163C40.6044 10.4157 39.8863 9.91064 39.0144 9.59221C38.1448 9.27817 36.825 9.12225 35.0571 9.12225C34.3939 9.12225 33.6605 9.18594 32.8611 9.3177C32.782 10.5563 32.7425 12.8885 32.7425 16.3143V19.3207C32.7425 21.9165 32.782 23.6294 32.8611 24.4573"
			fill="white" />
		<path
			d="M56.9022 26.1705C56.1555 24.3368 55.4396 22.5909 54.7544 20.9395L52.8856 16.4947C51.4208 13.0095 50.5183 10.9321 50.1801 10.2645C49.8419 9.59687 49.5849 9.21256 49.4093 9.11373C49.1479 8.97758 48.6011 8.89852 47.7754 8.87876V7.72363C49.8704 7.77634 51.1441 7.80489 51.5965 7.80489L56.2983 7.72363V8.87876C55.5604 8.88754 55.029 8.92927 54.6973 9.01052C54.5063 9.05444 54.3723 9.11593 54.2977 9.20158C54.2252 9.28503 54.1879 9.39044 54.1879 9.52C54.1879 9.78353 54.4733 10.6136 55.0509 12.0125C55.3847 12.8207 55.5626 13.2555 55.5846 13.3214C55.6065 13.3873 55.6351 13.4685 55.6724 13.5629L59.0148 21.6883L61.9421 14.4479C62.0124 14.281 62.3242 13.4509 62.8776 11.9576C63.2707 10.9079 63.5123 10.2096 63.6001 9.84941C63.6177 9.7462 63.6265 9.64298 63.6265 9.53538C63.6265 9.38824 63.6023 9.27844 63.554 9.20377C63.5057 9.12911 63.442 9.07421 63.363 9.03907C63.3015 9.01272 63.1434 8.98856 62.8908 8.97319C62.322 8.92048 61.8411 8.88974 61.448 8.88095V7.72583L64.7816 7.80708L67.6167 7.72583V8.88095C66.769 8.95781 66.2749 9.05224 66.1344 9.15546C65.8972 9.33773 65.4053 10.3303 64.6521 12.1333L63.7231 14.3074L61.9509 18.5282C60.4466 22.1297 59.4276 24.6772 58.894 26.1727H56.9022"
			fill="white" />
		<path
			d="M64.1587 26.0911V25.0195C64.868 24.9646 65.2897 24.9162 65.4236 24.8767C65.5554 24.8394 65.6718 24.7823 65.7706 24.6966C65.8628 24.6132 65.966 24.4814 66.0649 24.3013C66.1659 24.1213 66.4623 23.4559 66.963 22.2985C67.1892 21.7539 67.6263 20.6844 68.2741 19.0835L71.689 10.6287L72.8441 7.64648H74.7173L80.5918 21.3542L81.4065 23.1528L81.9335 24.3628C82.0214 24.5188 82.1048 24.6329 82.1839 24.7054C82.2608 24.7713 82.3508 24.824 82.4518 24.8591C82.5506 24.8965 82.8076 24.9294 83.2204 24.9514C83.3522 24.9711 83.5476 24.9909 83.7958 25.0217V26.0933L80.1481 26.0121L75.5386 26.0933V25.0217C76.5971 24.9755 77.1945 24.9162 77.3306 24.8416C77.4668 24.7691 77.5348 24.6439 77.5348 24.4726C77.5348 24.2486 77.4338 23.8951 77.2318 23.3988L76.1008 20.5175H69.3326L68.7572 22.0899C68.3202 23.2956 68.1028 24.0422 68.1028 24.3409C68.1028 24.5517 68.1709 24.701 68.3136 24.7867C68.5201 24.9075 69.1459 24.9865 70.189 25.0238V26.0955L67.1607 26.0143L64.1543 26.0955M69.9607 18.9605C70.7798 19.0111 71.7065 19.0396 72.7431 19.0396C73.7796 19.0396 74.6426 19.0111 75.4332 18.9605L72.6398 12.2121L69.9607 18.9605Z"
			fill="white" />
		<path
			d="M84.4048 24.9382C85.4435 24.8855 86.0386 24.835 86.188 24.7911C86.2868 24.7582 86.3681 24.7033 86.4339 24.622C86.4998 24.5451 86.5547 24.3848 86.5943 24.1433C86.6492 23.8073 86.7106 23.0101 86.7831 21.7386C86.8182 21.0161 86.8358 20.0762 86.8358 18.9233V14.731L86.7546 10.9296C86.748 10.2972 86.7216 9.88211 86.6777 9.69105C86.6316 9.4978 86.5679 9.35725 86.4844 9.26721C86.4032 9.17278 86.2714 9.1047 86.076 9.052C85.8849 8.99929 85.3249 8.94 84.4026 8.88071V7.72339C85.5204 7.77829 86.3395 7.80464 86.8666 7.80464L88.7771 7.76292L89.9871 7.72339C91.7923 10.0819 93.973 12.7919 96.5402 15.862C98.3849 18.0778 99.9177 19.8083 101.137 21.0622V18.0404C101.137 13.3541 101.082 10.5958 100.978 9.76791C100.941 9.4429 100.862 9.23647 100.741 9.14204C100.539 8.98392 99.854 8.89608 98.6945 8.87851V7.72119C99.7618 7.77609 100.737 7.80245 101.628 7.80245C102.52 7.80245 103.579 7.77609 104.918 7.72119V8.87851C103.86 8.90486 103.229 8.98392 103.03 9.11349C102.957 9.15521 102.911 9.2211 102.882 9.30894C102.753 9.74815 102.676 10.7452 102.647 12.3044C102.621 13.8636 102.608 15.0143 102.608 15.7565C102.608 21.5651 102.658 25.0876 102.766 26.3305L102.597 26.4469C101.866 26.3196 101.126 26.1988 100.372 26.089C97.5416 22.9311 93.5338 18.1898 88.3445 11.8608V18.3764C88.3445 19.727 88.3687 21.1391 88.4236 22.6016C88.4609 23.6162 88.5092 24.2311 88.5817 24.4507C88.619 24.5539 88.6761 24.6374 88.7618 24.7033C88.843 24.7691 88.9879 24.8153 89.201 24.8416C89.7675 24.9119 90.1826 24.9448 90.4483 24.9448C90.501 24.9448 90.5889 24.9404 90.7097 24.9339V26.0473C89.0472 26.0209 88.0985 26.0077 87.8724 26.0077C87.0181 26.0077 85.863 26.0363 84.4004 26.089V24.936"
			fill="white" />
		<path
			d="M123.426 23.6888L122.825 25.0174C121.733 25.5949 120.751 25.9924 119.886 26.2054C119.017 26.4185 117.934 26.5305 116.634 26.5305C114.783 26.5305 113.149 26.2362 111.723 25.652C110.608 25.1799 109.659 24.554 108.886 23.7766C108.109 22.997 107.509 22.1515 107.092 21.2446C106.455 19.8698 106.137 18.3831 106.137 16.7712C106.137 14.0173 107.077 11.7686 108.956 10.0227C110.838 8.27906 113.493 7.40723 116.922 7.40723C118.101 7.40723 119.157 7.49287 120.097 7.66636C121.037 7.83985 122.124 8.1451 123.363 8.58211L123.428 8.75121C123.281 9.15748 123.169 9.66477 123.09 10.2775C122.956 11.2525 122.868 12.1529 122.831 12.9852H121.797C121.786 12.0299 121.757 11.2635 121.716 10.6903C121.131 10.0798 120.475 9.62744 119.75 9.33097C119.021 9.03231 118.092 8.88078 116.959 8.88078C114.912 8.88078 113.272 9.533 112.044 10.8331C110.817 12.1353 110.199 13.9559 110.199 16.2881C110.199 17.6979 110.406 18.9299 110.821 19.984C111.234 21.0381 111.787 21.9056 112.472 22.5973C113.16 23.2825 113.854 23.7854 114.548 24.1016C115.496 24.5233 116.645 24.7341 117.998 24.7341C118.885 24.7341 119.724 24.6309 120.514 24.4288C121.307 24.2268 122.168 23.8798 123.101 23.3813L123.426 23.6844"
			fill="white" />
		<path
			d="M124.686 26.0912V25.384C125.206 25.1359 125.632 24.8833 125.96 24.6198C126.014 24.2531 126.054 23.6601 126.094 22.8388C126.164 21.3323 126.201 20.2365 126.201 19.5557V13.6461C126.201 13.4199 126.173 12.5657 126.12 11.0877C126.094 10.1017 126.036 9.49559 125.94 9.27598C125.898 9.18814 125.832 9.12226 125.744 9.07614C125.514 8.97293 124.894 8.89607 123.889 8.84117V7.84635L126.932 7.81122C127.539 7.81122 128.114 7.80683 128.665 7.80683C129.864 7.80683 131.197 7.79145 132.666 7.7673L135.328 7.69922C135.642 7.69922 136.279 7.71679 137.243 7.75412C137.331 7.75412 137.469 7.78267 137.675 7.84635L137.768 8.01545L137.526 9.90406C137.517 10.0358 137.471 10.6639 137.394 11.7927H136.362C136.345 10.7781 136.307 10.1566 136.246 9.92162C136.213 9.80304 136.16 9.71739 136.09 9.66688C135.978 9.59002 135.629 9.52194 135.049 9.46045C134.186 9.36602 133.347 9.31991 132.521 9.31991C131.751 9.31991 130.96 9.34626 130.15 9.40336C130.013 10.3872 129.952 11.6433 129.952 13.1652V15.8554C130.541 15.9081 131.16 15.9366 131.801 15.9366C132.003 15.9366 132.723 15.919 133.969 15.8839C134.438 15.8751 134.715 15.8466 134.796 15.7917C134.88 15.7412 134.944 15.6511 134.988 15.5194C135.091 15.19 135.152 14.6409 135.168 13.8679H136.244L136.165 16.7404L136.244 19.604H135.168C135.176 18.5872 135.11 17.9636 134.972 17.7264C134.865 17.5507 134.678 17.4409 134.406 17.397C133.793 17.3026 133.013 17.2542 132.065 17.2542C131.213 17.2542 130.505 17.2806 129.952 17.3311V22.8695C129.952 23.4888 129.974 24.0203 130.029 24.4639C130.732 24.5188 131.564 24.5451 132.526 24.5451C133.488 24.5451 134.324 24.5144 135.115 24.4529C135.905 24.3914 136.397 24.3036 136.575 24.1872C136.639 24.152 136.692 24.0708 136.747 23.95C136.9 23.5284 137.069 22.7312 137.236 21.5563H138.312C138.115 23.2912 138.011 24.7252 138.011 25.8474L137.836 26.0165C137.276 26.0692 136.483 26.0977 135.453 26.0977L133.347 26.0582C131.272 26.0319 129.84 26.0187 129.056 26.0187C128.85 26.0187 127.391 26.0472 124.686 26.0999"
			fill="white" />
		<path
			d="M140.161 26.0912V25.4543C140.231 25.4104 140.354 25.3379 140.53 25.2413C140.855 25.0568 141.164 24.8614 141.439 24.6549C141.544 23.4844 141.597 21.587 141.597 18.9562V16.804C141.597 15.6533 141.571 13.9624 141.518 11.7356C141.489 10.5036 141.435 9.71519 141.351 9.37699C141.323 9.29574 141.29 9.23864 141.246 9.19472C141.175 9.12445 141.068 9.06955 140.923 9.03441C140.776 9.00147 140.231 8.92461 139.289 8.79943V7.72337L144.033 7.80682C144.595 7.80682 145.644 7.77827 147.186 7.73215C148.304 7.69921 149.195 7.68604 149.867 7.68604C151.411 7.68604 152.645 7.78047 153.574 7.97152C154.503 8.16038 155.314 8.45905 156.005 8.8741C156.688 9.29135 157.273 9.78546 157.749 10.3542C158.223 10.923 158.584 11.5357 158.83 12.1923C159.24 13.2948 159.442 14.5048 159.442 15.8202C159.442 17.4914 159.139 18.9847 158.526 20.3046C157.918 21.6112 157.077 22.7136 156.008 23.6008C154.938 24.4836 153.781 25.1205 152.531 25.5114C151.284 25.8979 149.78 26.0933 148.016 26.0933L144.129 26.0121L140.159 26.0933M145.462 24.4573C146.259 24.5891 147.03 24.6549 147.764 24.6549C148.908 24.6549 149.927 24.5341 150.816 24.2882C151.471 24.1059 152.044 23.838 152.536 23.491C153.028 23.144 153.5 22.6258 153.952 21.9428C154.407 21.262 154.756 20.4495 155.004 19.5052C155.257 18.5609 155.382 17.5441 155.382 16.4505C155.382 15.4535 155.257 14.4894 155.004 13.5605C154.756 12.6293 154.345 11.8146 153.776 11.1163C153.205 10.4157 152.487 9.91064 151.616 9.59221C150.744 9.27817 149.424 9.12225 147.658 9.12225C146.995 9.12225 146.259 9.18594 145.462 9.3177C145.381 10.5563 145.344 12.8885 145.344 16.3143V19.3207C145.344 21.9165 145.383 23.6294 145.462 24.4573Z"
			fill="white" />
		<path
			d="M3.85938 23.4695C3.85938 23.4695 4.30517 23.8385 4.71364 23.285C6.63519 20.6608 11.0558 14.861 15.2218 10.5238C21.7111 3.76653 28.2114 2.97595 28.2114 2.97595C28.2114 2.97595 21.3883 2.65533 14.3697 8.86796C9.45052 13.2249 3.85938 23.4695 3.85938 23.4695Z"
			fill="white" />
		<path
			d="M157.866 25.8477C159.067 25.8477 160.003 26.7832 160.003 27.9471C160.003 29.111 159.067 30.0597 157.851 30.0597C156.634 30.0597 155.688 29.1373 155.688 27.9471C155.688 26.7568 156.649 25.8477 157.851 25.8477H157.866ZM157.837 26.2715C156.917 26.2715 156.226 27.0247 156.226 27.9493C156.226 28.8738 156.917 29.6271 157.866 29.6271C158.786 29.638 159.465 28.8826 159.465 27.9493C159.465 27.016 158.786 26.2715 157.851 26.2715H157.837ZM157.517 29.0341H157.029V26.9479C157.223 26.9105 157.49 26.871 157.837 26.871C158.235 26.871 158.415 26.9347 158.569 27.0379C158.683 27.128 158.773 27.2949 158.773 27.4859C158.773 27.7297 158.593 27.9076 158.338 27.9866V28.0108C158.542 28.0766 158.659 28.2414 158.72 28.5224C158.784 28.8431 158.826 28.9704 158.876 29.0341H158.351C158.288 28.9573 158.25 28.7772 158.184 28.5356C158.145 28.305 158.018 28.2018 157.75 28.2018H157.519V29.0319L157.517 29.0341ZM157.532 27.857H157.761C158.028 27.857 158.248 27.767 158.248 27.5496C158.248 27.3563 158.105 27.229 157.798 27.229C157.671 27.229 157.583 27.2422 157.53 27.2553V27.857H157.532Z"
			fill="white" />
	</g>
	<defs>
		<clipPath id="clip0_1166_5814">
			<rect width="160" height="43.7651" fill="white" transform="translate(0 0.202148)" />
		</clipPath>
	</defs>
</svg>